<svg width="120" height="34" viewBox="0 0 120 34" fill="none" xmlns="http://www.w3.org/2000/svg">
  <path d="M12.6731 0.0518082C12.6026 0.0940979 12.5463 0.199822 12.5463 0.284406C12.5463 0.524053 13.6176 1.8985 14.4846 2.76546C15.3374 3.62538 15.8449 4.03419 16.7471 4.59806C17.0784 4.80952 17.3181 4.99278 17.2899 5.00687C17.1912 5.07031 16.4018 5.19718 16.1269 5.19718C15.6758 5.19718 15.3938 5.5919 15.5559 6.0148C15.5982 6.12758 16.5639 6.79013 17.3604 7.23419C17.5859 7.36106 17.7551 7.48088 17.741 7.49498C17.7269 7.50908 17.4026 7.49498 17.015 7.45974C14.2731 7.19895 11.3621 7.34696 8.80352 7.8615C8.19031 7.98837 7.85198 8.08705 7.81674 8.15754C7.78855 8.21392 7.68987 8.57339 7.60529 8.95401C7.44317 9.63771 7.43612 9.65181 7.57709 9.75049C7.64758 9.80688 7.76035 9.83507 7.81674 9.81392C8.09868 9.72934 10.5868 9.35577 11.63 9.243C14.0828 8.97516 17.9242 9.10908 21.3568 9.58132L22.0264 9.67295L20.0881 9.71524C17.1207 9.78573 15.4502 9.98309 7.78855 11.1461C6.39295 11.3576 4.31366 11.6607 3.17181 11.8228C2.02996 11.9778 0.888106 12.14 0.634361 12.1752C0.155066 12.2457 0 12.3585 0 12.6333C0 12.7179 0.0563877 12.8378 0.126872 12.9012C0.380617 13.1267 3.37621 13.9373 5.67401 14.3955C6.37181 14.5364 7.02026 14.6633 7.11189 14.6844C7.25286 14.7126 7.17533 14.7831 6.59736 15.1355C5.51189 15.7981 4.59559 16.517 3.12952 17.8704L2.41057 18.5259L2.36828 18.9629C2.31189 19.4985 2.42467 20.7884 2.61498 21.7188C3.17885 24.503 4.87048 27.5126 7.29515 30.0642C8.33128 31.1567 10.2203 32.7778 11.3551 33.5532L11.7427 33.814L12.6167 33.4686C16.5216 31.932 19.7004 30.1417 22.4987 27.9074C23.6335 26.9981 25.5577 25.095 26.3612 24.0871C28.222 21.7541 29.5189 19.1743 30.0617 16.7285C30.1674 16.2633 30.1674 16.1646 30.0899 16.0941C30.0335 16.0448 29.4273 15.7558 28.7436 15.4457C28.0529 15.1426 27.489 14.8748 27.489 14.8536C27.489 14.8325 27.926 14.7338 28.4617 14.6281C30.9004 14.1488 32 13.606 32 12.873C32 12.0201 30.0335 10.9911 26.6714 10.11L25.5507 9.81392L24.9374 7.38221C24.2044 4.47824 24.0705 4.16811 23.2599 3.35753C22.5621 2.65269 22.1463 2.46238 19.9471 1.81392C18.9956 1.53903 17.2828 1.0245 16.141 0.672071C14.3648 0.136388 13.97 0.037709 13.4273 0.00951463C13.0326 -0.0116303 12.7436 0.00246888 12.6731 0.0518082ZM21.0467 13.2607C23.2388 14.903 23.2529 14.91 23.7885 15.0298C24.0916 15.1003 24.4581 15.1355 24.6132 15.1144C24.8952 15.0792 24.8952 15.0792 24.8529 15.2836C24.733 15.9038 24.0352 16.94 23.5137 17.2853C23.3374 17.3981 23.1753 17.5461 23.1542 17.6025C23.1401 17.6589 23.0907 18.2016 23.0485 18.8078C22.9216 20.7109 22.689 21.2184 21.2582 22.6422C18.1145 25.7717 15.4502 28.295 15.1189 28.4571C14.7947 28.6193 14.6819 28.6333 13.8502 28.6333C12.8846 28.6263 12.0952 28.5206 11.7568 28.3444C11.4819 28.2034 11.1084 27.6184 10.8617 26.9347L10.6573 26.3708L11.1507 26.251C11.6581 26.1311 12.941 25.5532 13.5683 25.1585L13.9207 24.9329H13.0044C12.0317 24.9329 11.2634 24.8483 10.9674 24.7144C10.7841 24.6298 10.5163 24.0871 10.6009 23.9602C10.622 23.925 10.7982 23.9532 11.0167 24.0237C11.2705 24.1082 11.7991 24.1787 12.5533 24.2281C13.1877 24.2704 13.9066 24.3338 14.1463 24.3761C14.6396 24.4607 14.7313 24.4325 14.7313 24.1858C14.7313 23.9109 14.3859 23.8122 13.1665 23.7347C11.6159 23.636 11.348 23.5937 11.0097 23.4386C10.7418 23.3118 10.7066 23.2695 10.7278 23.0792C10.7489 22.8677 10.7559 22.8677 11.4185 22.7338C11.785 22.6563 12.2079 22.5435 12.3559 22.48C12.6308 22.3602 12.6308 22.3602 11.5806 22.3602C10.6784 22.3602 10.5093 22.3391 10.3119 22.2263C10.0722 22.0783 9.93833 21.8527 9.93833 21.5778C9.93833 21.4862 10.178 20.8871 10.474 20.2598C11.5524 17.962 11.7286 17.3417 11.6863 16.0518L11.6652 15.3822L11.1013 15.2952L10.474 15.1895C10.4458 15.1895 9.62115 14.978 9.62115 14.978L8.87401 14.8018C8.87401 14.8018 8.28194 14.6467 8.28194 14.6256C8.28194 14.5974 8.71189 14.5928 9.11366 14.5082C12.1445 13.8386 15.0978 12.9364 17.5154 11.9356C18.7348 11.4351 18.4811 11.3435 21.0467 13.2607ZM9.71982 17.2219C9.93128 17.2642 9.94537 17.2853 9.90308 17.4897C9.74097 18.3355 9.26872 19.717 9.1207 19.7664C9.02908 19.7946 8.67665 18.9347 8.42291 18.0607C8.15507 17.1373 8.13392 17.1796 8.87401 17.1796C9.21938 17.1796 9.6 17.2007 9.71982 17.2219ZM21.385 23.6007C19.8273 26.7091 17.4449 29.5356 15.0907 31.0792C14.8018 31.2624 14.5551 31.4104 14.541 31.3893C14.5269 31.3752 14.8159 30.8466 15.1824 30.2122C15.711 29.2889 15.9154 28.9999 16.1903 28.7814C17.7621 27.5338 19.6088 25.6025 21.1454 23.6078C21.3921 23.2906 21.6035 23.0439 21.6176 23.058C21.6317 23.0721 21.533 23.3188 21.385 23.6007Z" fill="#FF9900" />
  <path d="M15.1541 15.77L13.3568 15.8944L12.9691 15.8592L12.6167 15.7182C12.6167 15.7182 12.2784 15.4574 12.2643 15.4715C12.2502 15.4856 12.4898 16.2423 12.5744 16.6088L12.7295 17.2784L12.8845 17.074L13.0396 16.8766L14.1955 17.1374C15.9013 17.5251 16.007 17.5251 16.6766 17.2361C17.4378 16.9048 18.4105 16.2775 18.3823 16.1295C18.333 15.8687 16.0634 15.615 15.1541 15.77Z" fill="#FF9900" />
  <path d="M39.9805 7.9375H45.6289C46.9102 7.9375 47.9922 8.13281 48.875 8.52344C49.7656 8.91406 50.4414 9.49219 50.9023 10.2578C51.3711 11.0156 51.6055 11.9492 51.6055 13.0586C51.6055 13.8398 51.4453 14.5547 51.125 15.2031C50.8125 15.8438 50.3594 16.3906 49.7656 16.8438C49.1797 17.2891 48.4766 17.6211 47.6562 17.8398L47.0234 18.0859H41.7148L41.6914 16.2461H45.6992C46.5117 16.2461 47.1875 16.1055 47.7266 15.8242C48.2656 15.5352 48.6719 15.1484 48.9453 14.6641C49.2188 14.1797 49.3555 13.6445 49.3555 13.0586C49.3555 12.4023 49.2266 11.8281 48.9688 11.3359C48.7109 10.8438 48.3047 10.4648 47.75 10.1992C47.2031 9.92578 46.4961 9.78906 45.6289 9.78906H42.2422V25H39.9805V7.9375ZM49.9531 25L45.8047 17.2656L48.1602 17.2539L52.3672 24.8594V25H49.9531ZM59.7031 25.2344C58.8203 25.2344 58.0195 25.0859 57.3008 24.7891C56.5898 24.4844 55.9766 24.0586 55.4609 23.5117C54.9531 22.9648 54.5625 22.3164 54.2891 21.5664C54.0156 20.8164 53.8789 19.9961 53.8789 19.1055V18.6133C53.8789 17.582 54.0312 16.6641 54.3359 15.8594C54.6406 15.0469 55.0547 14.3594 55.5781 13.7969C56.1016 13.2344 56.6953 12.8086 57.3594 12.5195C58.0234 12.2305 58.7109 12.0859 59.4219 12.0859C60.3281 12.0859 61.1094 12.2422 61.7656 12.5547C62.4297 12.8672 62.9727 13.3047 63.3945 13.8672C63.8164 14.4219 64.1289 15.0781 64.332 15.8359C64.5352 16.5859 64.6367 17.4062 64.6367 18.2969V19.2695H55.168V17.5H62.4688V17.3359C62.4375 16.7734 62.3203 16.2266 62.1172 15.6953C61.9219 15.1641 61.6094 14.7266 61.1797 14.3828C60.75 14.0391 60.1641 13.8672 59.4219 13.8672C58.9297 13.8672 58.4766 13.9727 58.0625 14.1836C57.6484 14.3867 57.293 14.6914 56.9961 15.0977C56.6992 15.5039 56.4688 16 56.3047 16.5859C56.1406 17.1719 56.0586 17.8477 56.0586 18.6133V19.1055C56.0586 19.707 56.1406 20.2734 56.3047 20.8047C56.4766 21.3281 56.7227 21.7891 57.043 22.1875C57.3711 22.5859 57.7656 22.8984 58.2266 23.125C58.6953 23.3516 59.2266 23.4648 59.8203 23.4648C60.5859 23.4648 61.2344 23.3086 61.7656 22.9961C62.2969 22.6836 62.7617 22.2656 63.1602 21.7422L64.4727 22.7852C64.1992 23.1992 63.8516 23.5938 63.4297 23.9688C63.0078 24.3438 62.4883 24.6484 61.8711 24.8828C61.2617 25.1172 60.5391 25.2344 59.7031 25.2344ZM69.3242 14.8398V25H67.1445V12.3203H69.207L69.3242 14.8398ZM68.8789 18.1797L67.8711 18.1445C67.8789 17.2773 67.9922 16.4766 68.2109 15.7422C68.4297 15 68.7539 14.3555 69.1836 13.8086C69.6133 13.2617 70.1484 12.8398 70.7891 12.543C71.4297 12.2383 72.1719 12.0859 73.0156 12.0859C73.6094 12.0859 74.1562 12.1719 74.6562 12.3438C75.1562 12.5078 75.5898 12.7695 75.957 13.1289C76.3242 13.4883 76.6094 13.9492 76.8125 14.5117C77.0156 15.0742 77.1172 15.7539 77.1172 16.5508V25H74.9492V16.6562C74.9492 15.9922 74.8359 15.4609 74.6094 15.0625C74.3906 14.6641 74.0781 14.375 73.6719 14.1953C73.2656 14.0078 72.7891 13.9141 72.2422 13.9141C71.6016 13.9141 71.0664 14.0273 70.6367 14.2539C70.207 14.4805 69.8633 14.793 69.6055 15.1914C69.3477 15.5898 69.1602 16.0469 69.043 16.5625C68.9336 17.0703 68.8789 17.6094 68.8789 18.1797ZM77.0938 16.9844L75.6406 17.4297C75.6484 16.7344 75.7617 16.0664 75.9805 15.4258C76.207 14.7852 76.5312 14.2148 76.9531 13.7148C77.3828 13.2148 77.9102 12.8203 78.5352 12.5312C79.1602 12.2344 79.875 12.0859 80.6797 12.0859C81.3594 12.0859 81.9609 12.1758 82.4844 12.3555C83.0156 12.5352 83.4609 12.8125 83.8203 13.1875C84.1875 13.5547 84.4648 14.0273 84.6523 14.6055C84.8398 15.1836 84.9336 15.8711 84.9336 16.668V25H82.7539V16.6445C82.7539 15.9336 82.6406 15.3828 82.4141 14.9922C82.1953 14.5938 81.8828 14.3164 81.4766 14.1602C81.0781 13.9961 80.6016 13.9141 80.0469 13.9141C79.5703 13.9141 79.1484 13.9961 78.7812 14.1602C78.4141 14.3242 78.1055 14.5508 77.8555 14.8398C77.6055 15.1211 77.4141 15.4453 77.2812 15.8125C77.1562 16.1797 77.0938 16.5703 77.0938 16.9844ZM95.6914 22.832V16.3047C95.6914 15.8047 95.5898 15.3711 95.3867 15.0039C95.1914 14.6289 94.8945 14.3398 94.4961 14.1367C94.0977 13.9336 93.6055 13.832 93.0195 13.832C92.4727 13.832 91.9922 13.9258 91.5781 14.1133C91.1719 14.3008 90.8516 14.5469 90.6172 14.8516C90.3906 15.1562 90.2773 15.4844 90.2773 15.8359H88.1094C88.1094 15.3828 88.2266 14.9336 88.4609 14.4883C88.6953 14.043 89.0312 13.6406 89.4688 13.2812C89.9141 12.9141 90.4453 12.625 91.0625 12.4141C91.6875 12.1953 92.3828 12.0859 93.1484 12.0859C94.0703 12.0859 94.8828 12.2422 95.5859 12.5547C96.2969 12.8672 96.8516 13.3398 97.25 13.9727C97.6562 14.5977 97.8594 15.3828 97.8594 16.3281V22.2344C97.8594 22.6562 97.8945 23.1055 97.9648 23.582C98.043 24.0586 98.1562 24.4688 98.3047 24.8125V25H96.043C95.9336 24.75 95.8477 24.418 95.7852 24.0039C95.7227 23.582 95.6914 23.1914 95.6914 22.832ZM96.0664 17.3125L96.0898 18.8359H93.8984C93.2812 18.8359 92.7305 18.8867 92.2461 18.9883C91.7617 19.082 91.3555 19.2266 91.0273 19.4219C90.6992 19.6172 90.4492 19.8633 90.2773 20.1602C90.1055 20.4492 90.0195 20.7891 90.0195 21.1797C90.0195 21.5781 90.1094 21.9414 90.2891 22.2695C90.4688 22.5977 90.7383 22.8594 91.0977 23.0547C91.4648 23.2422 91.9141 23.3359 92.4453 23.3359C93.1094 23.3359 93.6953 23.1953 94.2031 22.9141C94.7109 22.6328 95.1133 22.2891 95.4102 21.8828C95.7148 21.4766 95.8789 21.082 95.9023 20.6992L96.8281 21.7422C96.7734 22.0703 96.625 22.4336 96.3828 22.832C96.1406 23.2305 95.8164 23.6133 95.4102 23.9805C95.0117 24.3398 94.5352 24.6406 93.9805 24.8828C93.4336 25.1172 92.8164 25.2344 92.1289 25.2344C91.2695 25.2344 90.5156 25.0664 89.8672 24.7305C89.2266 24.3945 88.7266 23.9453 88.3672 23.3828C88.0156 22.8125 87.8398 22.1758 87.8398 21.4727C87.8398 20.793 87.9727 20.1953 88.2383 19.6797C88.5039 19.1562 88.8867 18.7227 89.3867 18.3789C89.8867 18.0273 90.4883 17.7617 91.1914 17.582C91.8945 17.4023 92.6797 17.3125 93.5469 17.3125H96.0664ZM103.438 14.3125V25H101.27V12.3203H103.379L103.438 14.3125ZM107.398 12.25L107.387 14.2656C107.207 14.2266 107.035 14.2031 106.871 14.1953C106.715 14.1797 106.535 14.1719 106.332 14.1719C105.832 14.1719 105.391 14.25 105.008 14.4062C104.625 14.5625 104.301 14.7812 104.035 15.0625C103.77 15.3438 103.559 15.6797 103.402 16.0703C103.254 16.4531 103.156 16.875 103.109 17.3359L102.5 17.6875C102.5 16.9219 102.574 16.2031 102.723 15.5312C102.879 14.8594 103.117 14.2656 103.438 13.75C103.758 13.2266 104.164 12.8203 104.656 12.5312C105.156 12.2344 105.75 12.0859 106.438 12.0859C106.594 12.0859 106.773 12.1055 106.977 12.1445C107.18 12.1758 107.32 12.2109 107.398 12.25ZM111.582 7V25H109.402V7H111.582ZM119.328 12.3203L113.797 18.2383L110.703 21.4492L110.527 19.1406L112.742 16.4922L116.68 12.3203H119.328ZM117.348 25L112.824 18.9531L113.949 17.0195L119.902 25H117.348Z" fill="#FF9900" />
</svg>
  